<svg width="449" height="442" viewBox="0 0 449 442" fill="none" xmlns="http://www.w3.org/2000/svg">
<path d="M431.514 135.016C420.104 108.73 403.632 84.9466 383.039 65.0219C362.171 44.8712 337.755 28.7553 311.025 17.4878C283.516 5.79085 253.907 -0.159122 224.016 0.00323527C192.668 0.00323527 163.498 5.83142 136.505 17.4878C110.083 28.7668 86.0039 44.8887 65.5089 65.0219C45.1424 85.0415 28.836 108.809 17.4865 135.016C5.78902 161.831 -0.166331 190.799 0.00353408 220.054C-0.129674 249.45 5.82285 278.555 17.4865 305.538C28.7339 331.948 45.0398 355.901 65.4851 376.048C85.9785 396.175 110.059 412.287 136.482 423.551C163.501 435.207 192.671 441.035 223.992 441.035C255.996 441.035 285.834 435.207 313.504 423.551C341.175 411.894 365.015 396.06 385.025 376.048C426.143 334.555 449.146 278.457 448.997 220.038C449.153 190.789 443.198 161.83 431.514 135.016ZM330.018 196.538C324.135 209.37 316.011 221.051 306.026 231.03C295.862 241.137 283.794 249.128 270.52 254.539C256.729 260.238 241.942 263.136 227.019 263.066C211.015 263.066 196.181 260.234 182.517 254.57C169.241 249.155 157.174 241.153 147.019 231.03C137.03 221.053 128.902 209.372 123.02 196.538C117.023 183.525 114.024 169.352 114.024 154.018C113.913 139.208 116.98 124.546 123.02 111.022C128.816 97.9971 136.95 86.1449 147.019 76.0531C157.179 65.9405 169.249 57.9493 182.525 52.5443C196.178 46.8751 211.012 44.0431 227.027 44.0484C241.947 43.9682 256.734 46.8561 270.528 52.5443C283.802 57.9551 295.87 65.9456 306.034 76.0531C316.103 86.1591 324.234 98.0247 330.026 111.062C336.068 124.585 339.138 139.247 339.029 154.058C339.166 168.706 336.09 183.207 330.018 196.538Z" fill="white"/>
</svg>
