<svg width="533" height="90" viewBox="0 0 533 90" fill="none" xmlns="http://www.w3.org/2000/svg">
<path d="M7 54.1C7.6 56.9 9.2 59.2 11.8 60.8C14.4 62.5 17.4 63.3 21 63.3C25.3 63.3 28.5 62.4 30.6 60.6C32.7 58.8 33.7 56.9 33.7 54.8C33.7 52.8 32.9 51.2 31.2 49.8C29.5 48.5 25.8 47.4 20.1 46.7C14.2 45.8 9.7 44.5 6.5 42.8C3.3 41 1.7 38 1.7 33.7C1.7 30.3 3.2 27.1 6.1 24.2C9.1 21.3 13.7 19.8 20.1 19.8C25.6 19.8 30.1 21.1 33.4 23.6C36.7 26.1 38.7 29.6 39.3 34H32.3C30.9 28.7 26.9 26.1 20.1 26.1C16.8 26.1 14 26.8 11.8 28.2C9.6 29.6 8.5 31.4 8.5 33.4C8.5 35.5 9.5 36.9 11.4 37.8C13.3 38.7 16.6 39.5 21.3 40.2C24.1 40.7 26.7 41.2 29.1 41.8C31.4 42.4 33.5 43.1 35.2 44.2C36.9 45.2 38.2 46.6 39.2 48.1C40.1 49.7 40.6 51.8 40.6 54.3C40.6 59 38.8 62.7 35.3 65.4C31.7 68.2 27 69.5 21.2 69.5C15.6 69.5 10.9 68.1 7.1 65.3C3 62.5 0.7 58.8 0 54.1H7Z" fill="#3F3F3F"/>
<path d="M55.4998 21.1V49.9C55.4998 53.8 56.6998 57 59.0998 59.4C61.4998 61.8 64.5998 63 68.3998 63C72.1998 63 75.2998 61.8 77.6998 59.4C80.0998 57 81.2998 53.9 81.2998 49.9V21.1H87.9998V49.9C87.9998 55.8 86.1998 60.5 82.5998 64.1C78.9998 67.7 74.1998 69.5 68.3998 69.5C62.4998 69.5 57.7998 67.7 54.1998 64.1C50.5998 60.5 48.7998 55.7 48.7998 49.9V21.1H55.4998Z" fill="#3F3F3F"/>
<path d="M132.8 39.5C132.8 35.5 131.7 32.2 129.5 29.8C127.3 27.3 124.3 26.1 120.5 26.1C116.6 26.1 113.4 27.4 110.9 29.9C108.4 32.4 107.1 35.6 107.1 39.4V68.6H100.3V21.1H106.9V27.3L107.8 26.2C111.3 21.9 115.9 19.8 121.6 19.8C127.1 19.8 131.5 21.6 134.7 25.1C137.9 28.7 139.6 33.6 139.6 39.8V68.5H132.8V39.5Z" fill="#3F3F3F"/>
<path d="M469.3 39.5C469.3 35.5 468.2 32.2 466 29.8C463.8 27.3 460.8 26.1 457 26.1C453.1 26.1 449.9 27.4 447.4 29.9C444.9 32.4 443.6 35.6 443.6 39.4V68.6H436.8V21.1H443.4V27.3L444.3 26.2C447.8 21.9 452.4 19.8 458.1 19.8C463.6 19.8 468 21.6 471.2 25.1C474.4 28.7 476.1 33.6 476.1 39.8V68.5H469.3V39.5Z" fill="#3F3F3F"/>
<path d="M188.6 0.5V29.2L187.7 27.9C185.6 25.3 183.2 23.3 180.4 21.9C177.6 20.5 174.6 19.8 171.4 19.8C168.1 19.8 165 20.4 162.1 21.7C159.2 23 156.7 24.8 154.6 27C152.5 29.3 150.8 31.9 149.6 34.9C148.4 37.9 147.8 41.1 147.8 44.5C147.8 48.1 148.4 51.3 149.6 54.3C150.8 57.3 152.5 59.9 154.6 62.2C156.7 64.5 159.3 66.2 162.2 67.5C165.1 68.8 168.3 69.4 171.6 69.4C178.3 69.4 184 67 188.5 62.2C193 57.3 195.3 51.4 195.3 44.4V0.5H188.6ZM187.2 51.9C186.3 54.2 185.1 56.2 183.6 57.9C182.1 59.6 180.2 61 178.2 61.9C176.1 62.9 173.9 63.4 171.6 63.4C166.8 63.4 162.8 61.6 159.5 58C156.2 54.4 154.6 50 154.6 44.7C154.6 42.1 155 39.7 155.9 37.5C156.8 35.3 158 33.3 159.5 31.6C161 29.9 162.9 28.5 164.9 27.6C167 26.6 169.2 26.1 171.5 26.1C173.8 26.1 176.1 26.6 178.1 27.6C180.2 28.6 182 29.9 183.5 31.6C185 33.3 186.2 35.3 187.1 37.5C188 39.7 188.4 42.1 188.4 44.7C188.4 47.2 188 49.6 187.2 51.9Z" fill="#3F3F3F"/>
<path d="M226.9 19.8C230.2 19.8 233.3 20.4 236.2 21.7C239.1 23 241.6 24.8 243.8 27C246 29.3 247.6 31.9 248.9 35C250.1 38.1 250.7 41.3 250.7 44.7V68.4H243.9V44.8C243.9 42.2 243.4 39.8 242.5 37.5C241.6 35.2 240.3 33.2 238.7 31.5C237.1 29.8 235.3 28.4 233.3 27.5C231.3 26.5 229.1 26 226.7 26C224.4 26 222.1 26.5 220.1 27.5C218 28.5 216.2 29.8 214.7 31.5C213.2 33.2 212 35.2 211.1 37.5C210.2 39.8 209.8 42.2 209.8 44.8C209.8 50.1 211.4 54.5 214.7 58C217.9 61.6 222 63.3 226.7 63.3C229.4 63.3 232.1 62.5 235 60.9L237.6 66C234.3 68.3 230.6 69.5 226.6 69.5C223.3 69.5 220.2 68.9 217.3 67.6C214.4 66.3 211.9 64.6 209.8 62.4C207.7 60.2 206 57.6 204.8 54.6C203.6 51.6 203 48.3 203 44.8C203 41.4 203.6 38.1 204.8 35.1C206 32 207.7 29.4 209.9 27.1C212.1 24.8 214.6 23.1 217.6 21.8C220.5 20.4 223.6 19.8 226.9 19.8Z" fill="#3F3F3F"/>
<path d="M259.9 83.2H261C263.6 83.2 265.6 82.6 267.1 81.5C268.6 80.4 269.8 78.4 270.8 75.6L273.6 68.6L255.2 21H262.7L277 60.8L291.3 21.1H298.7L277.1 78C275.6 82 273.7 85 271.4 86.8C269.1 88.6 266 89.6 262.2 89.6C261.8 89.6 261.4 89.6 261 89.5C260.6 89.4 260.2 89.4 259.8 89.4V83.2H259.9Z" fill="#3F3F3F"/>
<path d="M326.5 19.8C329.8 19.8 332.9 20.4 335.8 21.7C338.7 23 341.2 24.8 343.4 27C345.6 29.3 347.2 31.9 348.5 35C349.7 38.1 350.3 41.3 350.3 44.7V68.4H343.5V44.8C343.5 42.2 343 39.8 342.1 37.5C341.2 35.2 339.9 33.2 338.3 31.5C336.7 29.8 334.9 28.4 332.9 27.5C330.9 26.5 328.7 26 326.3 26C324 26 321.7 26.5 319.7 27.5C317.6 28.5 315.8 29.8 314.3 31.5C312.8 33.2 311.6 35.2 310.7 37.5C309.8 39.8 309.4 42.2 309.4 44.8C309.4 50.1 311 54.5 314.3 58C317.5 61.6 321.6 63.3 326.3 63.3C329 63.3 331.7 62.5 334.6 60.9L337.2 66C333.9 68.3 330.2 69.5 326.2 69.5C322.9 69.5 319.8 68.9 316.9 67.6C314 66.3 311.5 64.6 309.4 62.4C307.3 60.2 305.6 57.6 304.4 54.6C303.2 51.6 302.6 48.3 302.6 44.8C302.6 41.4 303.2 38.1 304.4 35.1C305.6 32 307.3 29.4 309.5 27.1C311.7 24.8 314.2 23.1 317.2 21.8C320 20.4 323.2 19.8 326.5 19.8Z" fill="#3F3F3F"/>
<path d="M426.3 34.7V34.6V34.5C426.3 30.5 425.7 26.7 424.5 23C424.5 22.9 424.5 22.9 424.4 22.8C424.2 22.2 424 21.6 423.7 21C423.3 20 422.8 19 422.4 18.1C422 17.2 421.5 16.4 421 15.6C421 15.5 420.9 15.5 420.9 15.4C419.8 13.7 418.6 12.1 417.3 10.7C417.3 10.6 417.2 10.6 417.2 10.5C417.1 10.4 417 10.2 416.8 10.1C413.8 7 410.3 4.5 406.2 2.7C403.1 1.4 399.9 0.6 396.6 0.2H396.5C396.2 0.2 396 0.1 395.7 0.1C395.5 0.1 395.4 0.1 395.2 0.1C394.8 0.1 394.3 0.1 393.9 0C393.8 0 393.8 0 393.7 0C393.6 0 393.4 0 393.3 0C393.2 0 393 0 392.9 0C392.8 0 392.8 0 392.7 0C392.3 0 391.8 0 391.4 0.1C391.2 0.1 391.1 0.1 390.9 0.1C390.6 0.1 390.4 0.2 390.1 0.2H390C386.7 0.5 383.5 1.3 380.4 2.7C376.3 4.5 372.8 6.9 369.8 10.1C369.7 10.2 369.5 10.4 369.4 10.5C369.4 10.6 369.3 10.6 369.3 10.7C368 12.2 366.8 13.8 365.7 15.4C365.7 15.5 365.6 15.5 365.6 15.6C365.1 16.4 364.6 17.3 364.2 18.1C363.7 19 363.3 20 362.9 21C362.7 21.6 362.4 22.2 362.2 22.8C362.2 22.9 362.2 22.9 362.1 23C360.9 26.6 360.3 30.4 360.3 34.5V34.6V34.7C360.3 38.7 360.9 42.5 362.1 46.2C362.1 46.3 362.1 46.3 362.2 46.4C362.4 47 362.6 47.6 362.9 48.2C363.3 49.2 363.8 50.2 364.2 51.1C364.6 52 365.1 52.8 365.6 53.6C365.6 53.7 365.7 53.7 365.7 53.8C366.8 55.5 368 57.1 369.3 58.5C369.3 58.6 369.4 58.6 369.4 58.7C369.5 58.8 369.6 59 369.8 59.1C372.8 62.2 376.3 64.7 380.4 66.5C383.5 67.8 386.7 68.6 390 69H390.1C390.4 69 390.6 69.1 390.9 69.1C391.1 69.1 391.2 69.1 391.4 69.1C391.8 69.1 392.3 69.1 392.7 69.2C392.8 69.2 392.8 69.2 392.9 69.2C393 69.2 393.2 69.2 393.3 69.2C393.4 69.2 393.6 69.2 393.7 69.2C393.8 69.2 393.8 69.2 393.9 69.2C394.3 69.2 394.8 69.2 395.2 69.1C395.4 69.1 395.5 69.1 395.7 69.1C396 69.1 396.2 69 396.5 69H396.6C399.9 68.7 403.1 67.9 406.2 66.5C410.3 64.7 413.8 62.3 416.8 59.1C416.9 59 417.1 58.8 417.2 58.7C417.2 58.6 417.3 58.6 417.3 58.5C418.6 57 419.8 55.4 420.9 53.8C420.9 53.7 421 53.7 421 53.6C421.5 52.8 422 52 422.4 51.1C422.9 50.2 423.3 49.2 423.7 48.2C423.9 47.6 424.2 47 424.4 46.4C424.4 46.3 424.4 46.3 424.5 46.2C425.7 42.5 426.3 38.7 426.3 34.7ZM418.9 40.2C418.9 40.5 418.8 40.7 418.7 41C418.4 42.6 417.9 44.1 417.4 45.6C416.1 49 414.2 52 411.9 54.6C409.5 57.2 406.8 59.3 403.6 60.8C400.4 62.3 397.1 63 393.5 63C393.5 63 393.5 63 393.4 63C393.4 63 393.4 63 393.3 63C389.7 63 386.4 62.2 383.2 60.8C380 59.3 377.2 57.2 374.9 54.6C372.5 52 370.7 49 369.4 45.6C368.8 44.1 368.4 42.6 368.1 41C368.1 40.7 368 40.5 367.9 40.2C367.9 40 367.9 39.9 367.8 39.7C367.5 38 367.4 36.3 367.4 34.5C367.4 32.7 367.5 30.9 367.8 29.3C367.8 29.1 367.8 29 367.9 28.8C367.9 28.5 368 28.3 368.1 28C368.4 26.4 368.9 24.9 369.4 23.4C370.7 20 372.6 17 374.9 14.4C377.3 11.8 380 9.7 383.2 8.2C386.4 6.7 389.7 6 393.3 6C393.3 6 393.3 6 393.4 6C393.4 6 393.4 6 393.5 6C397.1 6 400.4 6.8 403.6 8.2C406.8 9.7 409.6 11.8 411.9 14.4C414.3 17 416.1 20 417.4 23.4C418 24.9 418.4 26.4 418.7 28C418.7 28.3 418.8 28.5 418.9 28.8C418.9 29 418.9 29.1 419 29.3C419.3 31 419.4 32.7 419.4 34.5C419.4 36.3 419.3 38.1 419 39.7C418.9 39.9 418.9 40.1 418.9 40.2Z" fill="#3F3F3F"/>
<path d="M532.2 44.7C532.2 44.6 532.2 44.6 532.2 44.7C532.2 43.1 532.1 41.6 531.8 40.1C531.7 39.7 531.6 39.3 531.6 38.9C531.6 38.7 531.5 38.5 531.5 38.4C530.5 34.2 528.6 30.7 525.6 27.4C525.5 27.3 525.4 27.2 525.3 27.1C523.2 24.8 520.6 23.1 517.7 21.8C515.3 20.8 512.8 20.1 510.2 19.9C509.7 19.9 509.2 19.8 508.8 19.8C508.7 19.8 508.6 19.8 508.5 19.8C508.4 19.8 508.3 19.8 508.2 19.8C507.7 19.8 507.2 19.8 506.8 19.9C504.2 20.1 501.6 20.7 499.3 21.8C496.4 23.1 493.8 24.9 491.7 27.1C491.6 27.2 491.5 27.3 491.4 27.4C488.4 30.7 486.5 34.2 485.5 38.4C485.5 38.6 485.4 38.8 485.4 38.9C485.3 39.3 485.2 39.7 485.2 40.1C485 41.6 484.8 43.1 484.8 44.6C484.8 44.6 484.8 44.6 484.8 44.7C484.8 44.7 484.8 44.7 484.8 44.8C484.8 46.3 484.9 47.8 485.2 49.3C485.3 49.7 485.4 50.1 485.4 50.5C485.4 50.7 485.5 50.9 485.5 51C486.5 55.2 488.4 58.7 491.4 62C491.5 62.1 491.6 62.2 491.7 62.3C493.8 64.6 496.4 66.3 499.3 67.6C501.7 68.6 504.2 69.3 506.8 69.5C507.3 69.5 507.7 69.6 508.2 69.6C508.3 69.6 508.4 69.6 508.5 69.6C508.6 69.6 508.7 69.6 508.8 69.6C509.3 69.6 509.8 69.6 510.2 69.5C512.8 69.3 515.3 68.7 517.7 67.6C520 66.6 522 65.3 523.8 63.7L519.2 59.1C518 60.2 516.7 61 515.3 61.7C515.3 61.7 515.2 61.7 515.2 61.8C513.6 62.5 512 63 510.3 63.2C509.7 63.3 509.2 63.3 508.6 63.3C508 63.3 507.4 63.3 506.9 63.2C505.2 63 503.6 62.6 502 61.8C499.9 60.8 498.1 59.5 496.6 57.8C495.1 56.1 493.9 54.1 493 52C492.6 51 492.3 49.9 492.1 48.8C492.1 48.7 492 48.6 492 48.5C492 48.3 492 48.2 491.9 48C491.8 47.6 491.8 47.2 491.8 46.8C491.8 46.7 491.8 46.6 491.8 46.5C491.8 45.9 491.7 45.3 491.7 44.7C491.7 44.1 491.7 43.5 491.8 42.9C491.8 42.8 491.8 42.7 491.8 42.6C491.8 42.2 491.9 41.8 491.9 41.4C491.9 41.2 491.9 41.1 492 40.9C492 40.8 492.1 40.7 492.1 40.6C492.3 39.5 492.6 38.5 493 37.4C493.9 35.2 495 33.3 496.6 31.6C498.1 29.9 500 28.5 502 27.6C503.6 26.9 505.2 26.4 506.9 26.2C507.5 26.1 508 26.1 508.6 26.1C509.2 26.1 509.8 26.1 510.3 26.2C512 26.4 513.6 26.8 515.2 27.6C515.2 27.6 515.3 27.6 515.3 27.7C517.2 28.6 518.8 29.8 520.3 31.3C520.4 31.4 520.5 31.5 520.6 31.6C522.1 33.3 523.3 35.3 524.2 37.5C524.6 38.5 524.9 39.6 525.1 40.7C525.1 40.8 525.3 41.7 525.3 41.7H499.3V48.5H529.7C531.1 48.5 532.3 47.4 532.4 45.9C532.2 45.5 532.2 45.1 532.2 44.7Z" fill="#3F3F3F"/>
</svg>
